<svg width="169" height="26" viewBox="0 0 169 26" fill="none" xmlns="http://www.w3.org/2000/svg">
<g clip-path="url(#clip0_3_54)">
<path d="M20.6 1.14999V4.84999H12.1V21.75H8.5V4.84999H0V1.14999H20.6Z" fill="black"/>
<path d="M39.4 6.84999V6.74999C39.4 5.74999 38.5 4.84999 37.5 4.84999H29.1C28.1 4.84999 27.2 5.64999 27.2 6.74999V6.84999C27.2 7.84999 28 8.74999 29.1 8.74999H36.5C38.4 8.74999 40.1 9.54999 41.3 10.85C41.4 10.95 41.5 11.05 41.5 11.15C42.4 12.25 43 13.75 43 15.25C43 18.85 40.1 21.75 36.5 21.75H30C26.4 21.75 23.5 18.85 23.5 15.25H27.2C27.2 16.85 28.5 18.05 30 18.05H36.5C38.1 18.05 39.4 16.75 39.4 15.25C39.4 13.75 38.1 12.45 36.5 12.45H29.1C27.6 12.45 26.2 11.85 25.3 10.85C25 10.55 24.8 10.35 24.6 9.94999C24 9.04999 23.6 7.94999 23.6 6.74999C23.6 3.64999 26.1 1.14999 29.2 1.14999H37.6C40.7 1.14999 43.2 3.64999 43.2 6.74999V6.84999H39.4Z" fill="black"/>
<path d="M66.7 15.25C66.7 18.85 63.8 21.85 60.1 21.85H46.1V1.14999H59.1C62.2 1.14999 64.7 3.64999 64.7 6.74999C64.7 7.84999 64.4 8.84999 63.8 9.74999C65.5 10.95 66.7 12.95 66.7 15.25ZM49.7 8.64999H59C60 8.64999 60.9 7.84999 60.9 6.74999C60.9 5.64999 60 4.84999 59 4.84999H49.7V8.64999ZM63 15.25C63 13.65 61.7 12.35 60.1 12.35H49.7V18.15H60.1C61.7 18.15 63 16.85 63 15.25Z" fill="black"/>
<path d="M93.8 1.14999L91.9 4.84999L83.3 21.75L74.7 4.84999L72.8 1.14999H76.9L78.8 4.84999L83.3 13.65L87.8 4.84999L89.7 1.14999H93.8Z" fill="black"/>
<path d="M111 22.15H106.7L104.7 18.35L100 9.15L95.3 18.35L93.3 22.15H89L91 18.35L100 0.75L109 18.35L111 22.15Z" fill="black"/>
<path d="M165.3 6.84999V6.74999C165.3 5.74999 164.4 4.84999 163.4 4.84999H155C154 4.84999 153.1 5.64999 153.1 6.74999V6.84999C153.1 7.84999 153.9 8.74999 155 8.74999H162.4C164.3 8.74999 166 9.54999 167.2 10.85C167.3 10.95 167.4 11.05 167.4 11.15C168.3 12.25 168.9 13.75 168.9 15.25C168.9 18.85 166 21.75 162.4 21.75H156C152.4 21.75 149.5 18.85 149.5 15.25H153.2C153.2 16.85 154.5 18.05 156 18.05H162.5C164.1 18.05 165.4 16.75 165.4 15.25C165.4 13.75 164.1 12.45 162.5 12.45H155.1C153.6 12.45 152.2 11.85 151.3 10.85C151 10.55 150.8 10.35 150.6 9.94999C150 9.04999 149.6 7.94999 149.6 6.74999C149.6 3.64999 152.1 1.14999 155.2 1.14999H163.6C166.7 1.14999 169.2 3.64999 169.2 6.74999V6.84999H165.3Z" fill="black"/>
<path d="M123.9 1.25C126.9 1.25 129.8 1.25 132.8 1.25C134.6 1.25 135.1 1.85 135.1 3.55C135.1 4.25 135.1 4.95 135.1 5.65C135.1 6.15 135.2 6.35 135.7 6.25C136.3 6.25 136.9 6.25 137.5 6.25C138.9 6.25 139.9 6.95 140.6 8.15C141.1 9.05 141.5 9.85 141.9 10.85C142.3 11.85 143.1 12.45 144.1 12.75C146.3 13.35 146.6 13.75 146.6 16.05C146.6 17.35 146.6 18.55 146.6 19.85C146.6 21.15 145.8 21.85 144.6 21.95H144.5C143.9 21.95 143.2 22.15 142.6 21.95C142 21.75 142.3 20.95 142.1 20.35C141.4 18.35 139.5 17.15 137.3 17.35C135.4 17.55 133.7 19.05 133.5 21.05C133.4 21.85 133.1 21.95 132.4 21.95C129.9 21.95 127.4 21.95 124.9 21.95C124.4 21.95 124.2 21.85 124.1 21.35C123.9 19.05 122 17.35 119.7 17.35C117.4 17.35 115.4 19.05 115.2 21.35C115.2 21.85 115 22.05 114.5 21.95C114.2 21.95 113.9 21.95 113.7 21.95C112.7 21.85 111.9 21.15 111.9 20.05C111.9 18.85 111.9 17.55 111.9 16.35C111.9 15.25 112 15.15 113.1 15.15C115.1 15.15 117.2 15.15 119.2 15.15C120.5 15.15 121.2 14.45 121.2 13.15C121.2 11.85 120.5 11.15 119.2 11.15C117 11.15 114.9 11.15 112.7 11.15C112.2 11.15 111.8 11.15 111.8 10.45C111.8 9.85 112 9.55 112.6 9.55C115.8 9.55 119 9.55 122.2 9.55C123.8 9.55 124.7 8.45 124.3 6.85C124.1 6.15 123.7 5.65 122.9 5.55C122.6 5.55 122.3 5.45 122 5.45C118.9 5.45 115.9 5.45 112.8 5.45C112.1 5.45 111.8 5.15 111.9 4.45C111.9 4.15 111.9 3.85 111.9 3.55C111.9 2.05 112.6 1.35 114 1.25C114.4 1.25 114.8 1.25 115.2 1.25C118.3 1.25 121.1 1.25 123.9 1.25Z" fill="#FF0000"/>
<path d="M116.9 8.65001C115 8.65001 113.1 8.65001 111.3 8.65001C110.4 8.65001 110.1 8.35001 110.1 7.55001C110.1 6.75001 110.4 6.45001 111.3 6.45001C115.1 6.45001 118.8 6.45001 122.6 6.45001C123.5 6.45001 123.8 6.75001 123.9 7.55001C123.9 8.45001 123.6 8.65001 122.6 8.75001C120.6 8.65001 118.7 8.65001 116.9 8.65001Z" fill="black"/>
<path d="M141.4 21.65C141.4 23.55 139.9 25.05 138 25.05C136.1 25.05 134.6 23.45 134.6 21.65C134.6 19.85 136.1 18.25 138 18.25C139.9 18.25 141.4 19.85 141.4 21.65ZM139.5 21.65C139.5 20.85 138.8 20.15 138 20.15C137.2 20.15 136.6 20.85 136.6 21.65C136.6 22.45 137.3 23.15 138.1 23.15C138.9 23.25 139.5 22.55 139.5 21.65Z" fill="#FF0000"/>
<path d="M119.9 25.15C118 25.15 116.5 23.65 116.5 21.75C116.5 19.85 118.1 18.35 120 18.35C121.9 18.35 123.4 19.85 123.4 21.75C123.4 23.55 121.8 25.15 119.9 25.15ZM121.4 21.65C121.4 20.85 120.7 20.15 119.9 20.15C119.1 20.15 118.4 20.95 118.4 21.75C118.4 22.55 119.1 23.15 119.9 23.15C120.7 23.25 121.4 22.45 121.4 21.65Z" fill="#FF0000"/>
<path d="M114.2 14.25C112.5 14.25 110.9 14.25 109.2 14.25C108.2 14.25 107.9 13.95 107.9 13.05C107.9 12.25 108.2 11.95 109.1 11.95C112.5 11.95 115.8 11.95 119.2 11.95C120.1 11.95 120.4 12.25 120.4 13.15C120.4 13.95 120.1 14.25 119.2 14.25C117.6 14.25 115.9 14.25 114.2 14.25Z" fill="black"/>
<path d="M144.4 12.05C143.6 11.85 143.2 11.55 142.8 10.95V14.35L125.9 0.25V24.15H129.6V7.75L142.9 18.95L146.6 21.75V12.85C146.1 12.55 145.4 12.25 144.4 12.05Z" fill="black"/>
<path d="M146.6 1.14999V12.95C146.1 12.55 145.5 12.25 144.5 11.95C143.7 11.75 143.3 11.35 142.9 10.75V1.14999H146.6Z" fill="black"/>
<path d="M72.5 22.15C73.8807 22.15 75 21.0307 75 19.65C75 18.2693 73.8807 17.15 72.5 17.15C71.1193 17.15 70 18.2693 70 19.65C70 21.0307 71.1193 22.15 72.5 22.15Z" fill="#FF0000"/>
</g>
<defs>
<clipPath id="clip0_3_54">
<rect width="169" height="24.9" fill="white" transform="translate(0 0.25)"/>
</clipPath>
</defs>
</svg>
